<svg xmlns="http://www.w3.org/2000/svg" viewBox="0 0 32 32" fill="none">
  <rect width="32" height="32" rx="8" fill="#18181B"/>
  <path d="M9 11.5C9 10.6716 9.67157 10 10.5 10H16C18.7614 10 21 12.2386 21 15C21 16.4852 20.3085 17.8108 19.2273 18.6723L22 22H19L16.5 19H12.5V22H9V11.5Z" fill="white"/>
  <path d="M12.5 13V16.5H15.5C16.6046 16.5 17.5 15.6046 17.5 14.5V15C17.5 13.8954 16.6046 13 15.5 13H12.5Z" fill="#18181B"/>
  <circle cx="25" cy="10" r="3.5" fill="#10B981"/>
  <path d="M23.8 10L24.6 10.8L26.2 9.2" stroke="white" stroke-width="1" stroke-linecap="round" stroke-linejoin="round"/>
</svg>
